<svg width="780" height="257" xmlns="http://www.w3.org/2000/svg"><defs><radialGradient cy="0%" fx="50%" fy="0%" r="113.553%" gradientTransform="matrix(0 1 -.3282 0 .5 -.5)" id="a"><stop stop-color="#3A416F" offset="0%"/><stop stop-color="#21243D" offset="100%"/></radialGradient><linearGradient x1="31.09%" y1="12.822%" x2="76.785%" y2="106.977%" id="b"><stop stop-color="#5468FF" stop-opacity="0" offset="0%"/><stop stop-color="#5468FF" offset="100%"/></linearGradient><linearGradient x1="50.835%" y1="99.165%" x2="50.835%" y2=".835%" id="c"><stop stop-color="#21243D" offset="0%"/><stop stop-color="#21243D" stop-opacity="0" offset="100%"/></linearGradient></defs><g fill="none" fill-rule="evenodd"><path d="M8 0h764a8 8 0 0 1 8 8v248H0V8a8 8 0 0 1 8-8z" fill="url(#a)"/><path d="M8 0h274.47L431 257H0V8a8 8 0 0 1 8-8z" fill="url(#b)"/><path d="M8 0h423L255.167 257H0V8a8 8 0 0 1 8-8z" fill-opacity=".443" fill="#5468FF"/><path fill="url(#c)" d="M0 135h780v122H0z"/></g></svg>