<svg xmlns="http://www.w3.org/2000/svg" width="1600" height="950"><g fill="none" fill-rule="evenodd"><path vector-effect="non-scaling-stroke" stroke="#C5C9E0" stroke-dasharray="10" d="M1944.579 443.17c-20.02-7.713-39.775-16.232-60.147-22.855-14.037-4.573-28.812-7.295-43.455-9.432a282.127 282.127 0 0 0-43.488-3.306c-32.184.33-61.58 8.98-84.838 32.85-11.602 11.9-23.006 24-34.751 35.77-14.775 14.832-30.233 28.65-51.785 33.146-16.372 3.45-32.425 2.38-48.479-1.664-21.87-5.51-42.066-14.325-57.128-31.582-10.93-12.507-20.736-26.05-30.365-39.594-13.938-19.593-26.818-39.946-41.01-59.33-10.3-14.06-22.333-26.612-38.937-33.797-11.7-5.069-23.975-7.659-36.359-9.83-12.12-2.115-24.24-3.989-36.36-6.093-17.628-3.064-35.257-6.26-52.885-9.345-12.847-2.204-25.672-4.65-38.563-6.535-8.198-1.19-16.527-1.531-24.769-2.292l-35.257-3.306c-8.627-.782-17.287-1.256-25.881-2.204-28.46-3.306-56.082-9.267-79.33-27.549-15.072-11.868-26.674-26.656-35.874-43.472-11.602-21.202-22.918-42.592-35.412-63.264a95.147 95.147 0 0 0-36.172-34.812c-28.096-15.306-64.433-10.28-85.94 16.464-14.786 18.348-21.783 39.891-26.939 62.305-4.23 18.37-7.525 37.015-12.902 55.032-7.503 25.125-23.06 44.42-47.212 55.584a87.57 87.57 0 0 1-33.583 8.419c-5.156.187-10.29 1.102-15.425 1.013a166.514 166.514 0 0 1-63.904-13.168 351.07 351.07 0 0 1-57.822-31.45 8002.019 8002.019 0 0 1-81.533-55.099c-3.306-2.204-5.906-5.51-8.815-8.187-5.222-4.805-4.958-10.722-2.633-16.53a88.746 88.746 0 0 1 7.647-14.325c9.784-15.329 20.207-30.26 29.594-45.82 12.296-20.387 19.546-42.459 17.629-66.603a78.092 78.092 0 0 0-16.527-42.382C558.034 18.241 535.006 6.23 508.354 2.064c-32.944-5.147-62.725 3.306-88.673 24.585-22.597 18.513-38.232 41.94-45.482 70.008-9.079 35.12-1.62 60.608 33.495 80.708 22.036 12.606 45.482 22.865 68.135 34.48a77.026 77.026 0 0 1 14.323 9.918 11.65 11.65 0 0 1 2.204 14.711c-6.236 9.61-12.285 19.538-19.91 27.99-11.017 12.122-22.278 24.243-36.711 32.685a82.23 82.23 0 0 1-31.952 11.229c-17.949 2.204-34.002-3.527-50.154-9.588-14.533-5.454-28.768-11.846-43.598-16.265-12.814-3.812-26.025-2.016-39.07 1.3-23.314 5.94-42.97 19.175-63.32 30.966-27.622 15.99-54.286 33.72-83.252 47.241-15.425 7.207-31.368 13.4-47.377 19.329-31.732 11.791-61.7 26.447-85.874 50.823a165.189 165.189 0 0 0-38.673 61.644c-7.47 20.937-11.878 42.569-15.425 64.465-4.242 25.83-8.54 51.693-16.957 76.609-7.878 23.328-15.535 46.745-23.788 69.942-4.594 12.926-8.23 26.193-8.352 39.67-.12 12.838 2.468 25.6 9.917 37.004a48.976 48.976 0 0 0 25 19.582c16.196 5.84 32.403 3.527 47.817-3.25 14.324-6.293 26.576-15.703 37.528-26.877 9.828-10.017 19.678-20.001 29.748-29.753 18.08-17.445 38.75-30.778 63.353-36.828 19.458-4.794 38.938-4 58.396 1.421 22.575 6.293 42.275 18.27 62.229 29.864 20.152 11.725 39.918 24.309 62.802 30.216a204.443 204.443 0 0 0 25.87 4.958c29.75 3.714 57.228-4.407 83.098-18.248 13.86-7.394 26.961-16.265 40.282-24.662 17.166-10.833 34.475-21.577 53.988-27.395 31.952-9.5 60.599-2.678 85.345 19.714 17.827 16.1 26.2 37.015 30.3 60.046 3.305 18.91 5.806 38.03 10.114 56.708 6.247 27.086 19.513 50.404 42.298 67.22 14.422 10.612 30.85 15.802 48.953 16.76 27.743 1.466 52.07-7.603 74.922-22.171a214.24 214.24 0 0 0 36.359-29.213c15.624-15.604 31.17-31.274 46.848-46.823 25-24.649 53.358-45.64 84.233-62.35 23.137-12.628 47.377-22.358 71.617-32.452 20.427-8.518 40.766-17.312 61.16-25.852 19.976-8.353 39.775-17.235 60.114-24.607 17.012-6.16 34.75-10.711 52.886-12.122a419.356 419.356 0 0 1 55.09-1.025c17.893.992 35.72 3.978 53.437 6.965 34.773 5.851 68.312 16.739 102.534 25.059 15.711 3.823 31.853 6.06 47.895 8.308a279.075 279.075 0 0 0 31.39 2.204c22.763.617 45.56.353 68.311 1.312 24.662.86 48.78 7.479 70.427 19.328 16.086 8.816 31.412 19.13 46.893 29.081 14.51 9.334 29.473 17.632 46.275 21.907a124.485 124.485 0 0 0 19.27 3.306c28.184 2.513 53.867-6.292 78.757-18.138a10153.218 10153.218 0 0 0 89.245-42.977c10.192-4.937 20.174-10.337 30.333-15.35 3.911-1.918 8.065-3.306 12.12-5.003"/><path vector-effect="non-scaling-stroke" stroke="#C5C9E0" d="M1944.579 725.274c-31.335 12.54-58.825 31.957-87.615 49.027-18.114 10.755-35.996 21.984-54.627 31.78a141.146 141.146 0 0 1-55.52 15.858c-22.917 1.74-44.226-3.45-65.006-11.89-20.934-8.519-39.3-21.731-58.395-33.533-17.772-11.02-35.908-21.136-56.192-27.076a178.775 178.775 0 0 0-35.257-7.085c-17.089-1.455-34.156-2.788-51.234-4.408-27.544-2.656-55.09-6.127-82.061-12.221-18.147-4.088-35.963-9.642-53.988-14.138-23.138-5.742-46.177-11.483-69.414-16.464a258.542 258.542 0 0 0-61.7-5.609 248.045 248.045 0 0 0-60.599 9.444c-27.942 7.923-54.407 19.835-81.015 31.296-21.088 9.08-42.243 17.984-63.342 27.02a448.018 448.018 0 0 0-59.497 30.326c-20.593 12.728-39.963 27.076-57.294 44.08-16.703 16.352-33.483 32.617-50.11 49.059-19.611 19.394-40.568 37.125-65.083 50.007-16.185 8.496-33.307 14.601-51.718 16.706-19.303 2.204-38.21 1.587-56.764-4.97-26.08-9.201-45.978-25.93-60.533-49.115-14.224-22.645-21.595-47.891-27.071-73.832-3.306-15.89-6.853-31.78-13.222-46.844-7.845-18.635-20.57-32.674-40.27-38.338-13.938-4.066-28.427-2.964-42.343 1.444-18.83 6.006-35.577 16.298-52.324 26.447-23.523 14.249-48.181 25.82-74.922 32.398a154.415 154.415 0 0 1-50.099 3.736c-28.184-2.392-53.712-13.059-78.326-26.668-18.676-10.314-37.56-20.64-57.294-28.464-27.897-11.02-55.75-8.816-81.962 6.821-11.096 6.612-20.935 14.855-30.344 23.649-16.362 15.24-32.525 30.744-49.68 45.059a111.847 111.847 0 0 1-52.192 24.365c-26.961 4.86-52.468 1.564-74.922-15.428-19.656-14.91-30.08-35.263-33.682-59.44-3.427-23.075.187-45.346 7.25-67.22 5.608-17.356 12.296-34.37 17.42-51.859 5.651-19.262 10.709-38.756 14.83-58.404 3.128-14.954 3.448-30.436 2.203-45.666-.937-11.471-3.305-22.899-5.983-34.16-2.677-11.263-10.07-18.514-25.198-13.797-9.376 2.909-18.73 5.73-28.096 8.815a180.371 180.371 0 0 1-67.21 9.29c-8.648-.463-17.264-1.421-25.892-2.204"/><path vector-effect="non-scaling-stroke" stroke="#5468FF" d="M939.19 175.998c-21.21 4.342-30.785 20.023-36.812 38.57-4.583 14.148-8.02 28.65-12.252 42.976-9.728 32.805-25.098 61.941-54.538 81.545-14.643 9.742-31.104 14.624-48.48 16.53-8.968.98-18.014 2.325-26.982 2.083a284.221 284.221 0 0 1-55.09-6.502c-25.727-5.851-49.9-16.089-73.82-26.91-18.51-8.364-37.032-16.86-56.754-21.973-24.802-6.447-48.237-2.777-69.336 12.121-12.957 9.147-25.342 19.164-38.09 28.541-14.036 10.304-28.955 18.734-46.22 22.745a83.493 83.493 0 0 1-38.563.253c-21.088-5.025-41.934-11.107-62.802-16.948a171.647 171.647 0 0 0-31.401-5.642c-26.94-2.347-51.542 5.72-75.407 16.342-18.587 8.276-36.194 18.734-54.682 27.23-22.499 10.325-45.471 19.615-68.257 29.334-20.647 8.816-41.394 17.433-58.935 31.957-16.78 13.918-28.735 31.362-37.46 51.22-8.727 19.857-12.88 40.673-16.373 61.71-1.444 8.695-1.785 17.632-2.281 26.447-.882 15.968-2.446 31.957-1.961 47.925.43 13.819.65 27.836 5.079 41.379 3.206 9.807 13.706 13.73 20.526 12.044 22.61-5.62 45.108-11.659 67.794-16.926 11.018-2.568 22.366-3.857 33.583-5.631 22.421-3.537 44.248.309 65.49 6.821 16.693 5.113 31.953 13.72 46.926 22.855 19.105 11.67 38.232 23.373 57.91 34.04 13.024 7.063 27.347 10.689 42.298 12.485 30.575 3.68 57.415-6.017 82.635-21.753 20.119-12.584 39.577-26.227 59.607-38.943a125.384 125.384 0 0 1 43.51-17.544c17.728-3.416 35.148-.198 51.719 6.513 30.585 12.386 55.001 32.277 71.616 61.104 7.173 12.452 11.018 26.084 13.222 40.2 2.986 19.097 4.925 38.414 9.079 57.247 5.233 23.77 18.18 42.778 40.557 53.996 13.54 6.789 27.92 7.88 42.97 5.709 23.997-3.472 43.367-15.847 61.006-31.142a517.067 517.067 0 0 0 38.563-37.467 374.046 374.046 0 0 1 52.512-46.657 419.115 419.115 0 0 1 92.463-51.407c22.608-9.014 44.82-19.053 67.21-28.53 33.582-14.193 67.054-28.651 100.88-42.271a178.468 178.468 0 0 1 48.897-11.747c9.167-.904 18.345-1.675 27.545-2.204 10.269-.573 20.57-1.257 30.85-1.102 20.031.396 40.084.782 60.048 2.259 25.342 1.862 50.771 4.1 75.474 10.876 14.697 4.022 29.484 7.714 44.071 12.188a155.958 155.958 0 0 0 56.754 6.358c22.036-1.587 43.664-5.653 62.295-19.064 5.807-4.187 11.107-8.815 14.842-14.92 7.393-12.188 4.616-24.244-3.548-33.952-12.263-14.579-25.793-28.177-39.533-41.412-14.202-13.675-28.723-27.141-39.367-43.76-13.221-20.639-25.506-41.929-37.538-63.307-10.49-18.634-22.036-36.453-37.053-51.704-15.018-15.252-32.878-25.875-52.314-34.161a454.22 454.22 0 0 0-78.227-25.236 388.02 388.02 0 0 0-42.97-7.14c-19.392-2.116-38.927-2.987-58.395-4.607-15.624-1.3-31.325-2.203-46.816-4.518-29.66-4.407-56.313-15.427-78.944-36.056-17.727-16.155-31.004-35.384-42.727-55.87-8.903-15.548-17.629-31.12-30.95-43.461-9.156-8.474-19.623-13.83-32.492-13.224"/><path vector-effect="non-scaling-stroke" stroke="#C5C9E0" d="M952.411 288.399c-10.588 2.678-18.995 8.694-26.443 16.53-10.809 11.217-22.036 22.039-32.988 33.058-21.309 21.566-46.837 35.352-76.619 40.63a220.711 220.711 0 0 1-53.404 3.306c-32.128-2.204-64.058-6.105-95.305-14.26-19.69-5.135-39.17-11.229-59.001-15.714a206.17 206.17 0 0 0-38.563-4.947c-17.772-.595-34.156 5.63-48.37 15.89-14.08 10.138-27.368 21.411-40.843 32.387-13.706 11.152-28.393 20.22-46.275 22.502a144.5 144.5 0 0 1-28.647.937c-26.763-1.907-52.159-10.094-78.227-15.296-18.588-3.713-37.197-7.416-56.192-5.763a124.112 124.112 0 0 0-29.143 6.06c-19.512 6.679-38.717 14.326-57.888 21.886-20.67 8.21-41.152 16.871-61.7 25.345-20.296 8.254-40.503 16.585-57.867 30.293-18.4 14.502-30.85 33.06-35.125 56.2-3.041 16.343-2.38 32.894 4.352 48.41 6.732 15.516 19.237 24.783 35.202 28.486 15.205 3.537 30.773 5.51 46.276 7.89 28.129 4.32 55.53 11.02 80.43 25.456 13.476 7.834 26.631 16.231 39.666 24.772 18.587 12.121 37.053 24.585 58.483 31.196 7.955 2.458 16.428 3.494 24.746 4.496 23.964 2.877 45.317-4.892 64.93-17.631 18.135-11.813 35.598-24.651 53.535-36.773 16.395-11.085 33.131-21.345 52.82-26.105a74.03 74.03 0 0 1 39.665 1.4c31.203 9.498 58.164 26.777 83.23 47.252 15.723 12.86 30.035 27.03 41.328 44.078 11.481 17.323 18.28 36.365 22.036 56.752 2.027 10.865 3.47 21.962 6.81 32.442 4.517 14.182 11.976 26.656 27.313 32.045 11.36 3.989 22.29 2.204 33.054-2.204 14.587-6.072 26.884-15.648 37.902-26.558 33.164-32.794 70.955-59.021 111.28-82.195 30.047-17.257 61.779-30.448 93.73-43.418 16.913-6.854 33.506-14.513 50.166-21.973 29.748-13.334 59.243-27.406 89.344-39.968a205.58 205.58 0 0 1 59.41-15.097c11.92-1.158 23.853-2.337 35.807-3.306 11.558-.904 23.138-1.102 34.696-2.314 27.545-2.777 55.211-5.136 81.533-14.789 15.425-5.642 30.365-12.353 42.298-23.824 10.809-10.381 17.144-23.583 19.347-38.46a123.681 123.681 0 0 0-6.026-60.607 128.335 128.335 0 0 0-38.563-55.628c-29.187-24.662-63.497-38.712-100.264-47.384-15.568-3.659-31.269-6.733-47.377-7.251-19.292-.628-38.563-1.3-57.844-2.204-22.752-1.102-45.515-1.874-67.783-7.615-17.629-4.55-33.847-12.121-49.58-21.047-18.114-10.27-36.018-20.938-53.989-31.362a43.394 43.394 0 0 0-24.79-6.061"/><path vector-effect="non-scaling-stroke" stroke="#C5C9E0" d="M963.429 365.537c-7.9 2.204-16.174 3.537-23.612 6.799-15.865 6.942-31.4 14.678-46.88 22.458a136.387 136.387 0 0 1-46.276 13.653c-9.696 1.102-19.458 1.642-29.198 2.204-8.429.53-16.913 1.367-25.341 1.003-14.533-.617-29.022-2.05-43.521-3.174-8.815-.694-17.629-1.355-26.443-2.204-7.713-.76-15.426-1.807-23.138-2.71a8035.94 8035.94 0 0 0-23.689-2.766l-28.646-3.306a41.762 41.762 0 0 0-4.408 0c-10.467 0-20.934-.055-31.4 0-21.299.143-40.062 7.482-56.732 20.397-17.111 13.224-28.647 31.164-40.293 48.983-7.371 11.24-14.962 22.392-23.138 33.059-7.536 9.719-16.736 11.372-28.503 6.094-8.396-3.758-16.626-7.89-24.802-12.122-22.719-11.659-46.837-19.12-71.616-24.805-17.63-4.045-35.258-7.428-53.438-7.714-23.666-.32-46.077 5.366-67.76 14.325a245.034 245.034 0 0 0-69.248 43.693c-6.28 5.587-12.043 12.53-11.271 22.414a27.077 27.077 0 0 0 8.957 18.117c12.12 11.394 24.24 22.855 36.933 33.566 16.185 13.631 32.833 26.733 49.58 39.67 16.527 12.816 35.06 22.04 55.652 25.037 13.905 2.028 28.316 1.102 41.868-4.573 20.406-8.606 37.792-21.654 54.583-35.78 22.466-18.9 40.249-41.876 57.9-65.017a40.471 40.471 0 0 1 11.602-10.303 15.423 15.423 0 0 1 10.82-1.102c9.332 2.611 16.89 8.816 24.239 14.766 13.508 11.02 26.267 22.998 39.808 33.985 19.59 15.912 39.664 31.219 59.42 46.933 23.402 18.634 46.65 37.467 69.986 56.2 13.75 11.02 27.126 22.623 41.438 32.883 11.889 8.529 25.881 12.926 40.624 11.526a163.044 163.044 0 0 0 32.458-6.612c20.56-6.38 40.282-15.02 59.564-24.606 23.677-11.78 47.09-24.145 71.132-35.11 28.415-12.958 57.073-25.344 84.838-39.725 19.744-10.27 40.028-19.483 59.993-29.334 27.082-13.356 55.244-23.726 84.838-29.566 12.483-2.458 25.341-3.185 37.99-4.551 26.564-2.877 53.37-4.089 78.79-13.742 20.768-7.89 38.849-19.141 50.682-38.646a54.686 54.686 0 0 0 7.845-25.863c1.432-26.513-11.338-45.93-30.41-62.24-21.848-18.733-47.939-28.54-75.506-34.524-11.271-2.446-23.138-2.468-34.662-3.504-5.51-.485-11.018-1.102-16.527-1.102-12.12.132-24.24.683-36.36 1.025-14.323.396-28.646 1.487-42.97.925a225.616 225.616 0 0 1-56.775-9.642c-16.527-5.036-33.252-9.918-50.165-13.62-9.046-1.984-18.664-1.356-28.03-1.907"/><path vector-effect="non-scaling-stroke" stroke="#C5C9E0" d="M670.351 440.47c-8.263 1.477-16.604 2.612-24.78 4.474-19.314 4.408-36.028 13.356-47.883 29.754a62.124 62.124 0 0 0-11.734 31.957c-2.204 25.819 7.877 47.384 22.763 67.22 15.667 20.86 35.136 37.852 56.72 52.321 15.36 10.293 30.718 20.728 46.904 29.599 16.405 8.981 34.078 15.604 52.776 18.282a120.077 120.077 0 0 0 34.695-.375c35.258-5.212 65.998-21.709 95.724-39.924a619.439 619.439 0 0 0 58.296-40.31c13.1-10.26 24.24-23.142 36.007-35.01 14.973-15.163 28.526-31.814 46.275-44.079 9.652-6.611 20.824-9.487 31.953-12.011 16.427-3.714 32.987-6.942 49.58-9.918 12.671-2.303 25.342-1.267 37.99 1.102 13.365 2.458 26.774 3.516 40.205 1.003 6.335-1.179 12.803-2.523 18.73-5.036 10.049-4.298 14.511-13.863 6.611-22.943a28.557 28.557 0 0 0-16.527-9.3c-19.05-3.57-37.46-.585-55.09 7.13A155.335 155.335 0 0 1 1104.393 477c-6.435.738-12.858 2.005-19.293 2.06-7.383.223-14.77-.335-22.036-1.664-16.262-3.305-32.293-7.813-48.479-11.317-10.731-2.325-21.66-3.702-32.48-5.63-8.65-1.544-17.222-3.571-25.904-4.86-10.797-1.598-21.628-3.152-32.503-3.802-14.477-.882-29.01-.838-43.51-1.235-11.58-.33-23.137-.628-34.706-1.101-14.698-.629-29.385-1.411-44.072-2.204-13.045-.684-26.09-1.279-39.114-2.204-11.59-.86-23.138-2.524-34.718-3.163-13.75-.771-27.544-.87-41.317-1.18-5.134-.12-10.28 0-15.425 0"/><path vector-effect="non-scaling-stroke" stroke="#C5C9E0" d="M800.363 484.55a54.84 54.84 0 0 1-6.61 1.101c-18.952.87-37.087 4.783-53.989 13.753-9.1 4.826-17.408 10.435-23.677 18.788-10.225 13.632-8.572 30.415 2.203 42.977a96.779 96.779 0 0 0 53.426 31.88c11.404 2.523 22.984 2.149 34.696.826 21.926-2.457 42.628-9.179 63.342-16.121 14.324-4.816 27.898-11.24 39.665-20.938 8.153-6.755 14.235-14.987 14.786-25.885.705-13.896-7.492-22.734-18.653-29.147-13.431-7.714-28.195-11.284-43.5-12.695-13.573-1.256-27.17-2.292-40.766-3.306-6.776-.518-13.585-.76-20.372-1.102M481.944 41.558c-5.333 1.477-10.908 2.358-15.932 4.518a56.273 56.273 0 0 0-30.42 30.172c-8.529 19.593-.805 39.44 14.422 50.118 28.25 19.835 71.418 13.73 87.483-19.836 12.12-25.345-.22-49.368-23.579-60.08-10.103-4.627-20.648-5.256-31.423-4.903"/></g></svg>
