<svg width="1600" height="656" xmlns="http://www.w3.org/2000/svg"><path vector-effect="non-scaling-stroke" d="M822.254 563.183c19.757 19.346 40.667 30.03 61.67 30.03h257.673c-6.924-15.72-13.67-37.01-20.159-63.008-35.285 20.95-76.487 32.978-120.5 32.978H822.255zm-1.676 0h-41.356c-20.215 20.082-41.693 31.203-63.346 31.203H457.68c-8.724 19.43-17.725 30.004-26.838 30.004h-283.2v31.203h-655.236V.407h655.236V30.41h283.2c9.113 0 18.114 10.574 26.838 30.004h258.195c21.218 0 42.268 10.678 62.126 30.003h43.796c19.858-19.325 40.908-30.003 62.126-30.003h258.195c8.724-19.43 17.725-30.004 26.838-30.004h284.4V.407h655.236v655.186h-655.236V624.39h-284.4c-9.114 0-18.114-10.574-26.838-30.004H883.924c-21.653 0-43.132-11.12-63.346-31.203zm2.914-472.766h177.447c44.12 0 85.418 12.088 120.76 33.133 6.408-25.524 13.067-46.455 19.898-61.964H883.924c-20.565 0-41.04 10.244-60.432 28.83zm319.406-28.83c-6.877 15.532-13.634 36.708-20.132 62.602 68.642 41.364 114.55 116.626 114.55 202.61 0 86.095-46.024 161.439-114.811 202.77 6.578 26.368 13.423 47.904 20.393 63.645h227.028c28.907 0 57.639-20.242 83.43-55.446V117.032c-25.792-35.204-54.523-55.446-83.43-55.446h-227.028zm.524-1.173h226.504c28.995 0 57.676 19.941 83.43 54.64V31.59h-284.4c-8.517 0-17.113 10.172-25.534 28.824zm309.935 479.333c-25.755 34.698-54.436 54.64-83.43 54.64h-226.505c8.421 18.651 17.017 28.823 25.535 28.823h284.4v-83.463zm-632.283 22.27h179.865c43.92 0 85.028-12.038 120.205-32.994-2.841-11.464-5.633-23.83-8.368-37.027-12.713-61.354-23.044-138.779-23.044-164.595 0-25.817 10.331-103.242 23.044-164.596 2.818-13.599 5.697-26.316 8.628-38.073-35.235-21.052-76.437-33.149-120.465-33.149H822.288c-7.4 7.242-14.64 15.699-21.66 25.265 9.427 12.936 18.453 27.854 26.949 44.495 27.799 54.455 46.115 121.33 46.115 166.056v.001c0 44.727-18.316 111.601-46.115 166.057-8.496 16.641-17.522 31.559-26.95 44.495 6.638 9.042 13.469 17.094 20.447 24.065zm-1.659 0c-6.658-6.744-13.176-14.46-19.515-23.071-6.34 8.61-12.857 16.327-19.515 23.07h39.03zM799.9 115.854c6.718-9.126 13.638-17.247 20.712-24.27h-41.424c7.074 7.023 13.994 15.144 20.712 24.27zm654.643 422.281v85.075h284.4c18.876 0 38.138-49.953 55.026-131.454 12.698-61.28 23.019-138.633 23.019-164.355 0-25.722-10.321-103.075-23.019-164.356-16.888-81.502-36.15-131.455-55.026-131.455h-284.4v85.075c9.476 12.979 18.547 27.959 27.083 44.678 27.8 54.456 46.116 121.33 46.116 166.057 0 44.727-18.317 111.601-46.116 166.058-8.536 16.719-17.607 31.698-27.083 44.677zm0-2c9.094-12.619 17.814-27.1 26.038-43.21 27.72-54.301 45.988-120.997 45.988-165.525 0-44.527-18.267-111.223-45.988-165.524-8.224-16.11-16.944-30.592-26.038-43.21v417.469zm-655.37-419.287c-7.022-9.566-14.26-18.023-21.661-25.265h-178.65c-44.029 0-85.232 12.097-120.466 33.15 2.931 11.755 5.81 24.473 8.627 38.072 12.714 61.354 23.045 138.779 23.045 164.595 0 25.817-10.331 103.242-23.045 164.596-2.734 13.197-5.526 25.563-8.367 37.027 35.177 20.956 76.285 32.994 120.205 32.994h179.865c6.978-6.971 13.81-15.023 20.446-24.065-9.427-12.936-18.454-27.854-26.949-44.495-27.799-54.456-46.115-121.33-46.115-166.057v-.001c0-44.727 18.316-111.6 46.115-166.056 8.495-16.641 17.522-31.559 26.95-44.495zm.727.996c-9.308 12.81-18.23 27.57-26.633 44.032-27.72 54.3-45.986 120.996-45.986 165.523 0 44.529 18.267 111.225 45.986 165.525 8.404 16.461 17.325 31.222 26.633 44.032 9.308-12.81 18.229-27.57 26.632-44.032 27.72-54.3 45.987-120.996 45.987-165.524 0-44.528-18.267-111.224-45.987-165.524-8.403-16.462-17.324-31.222-26.632-44.032zm322.31 410.54c68.278-41.166 113.94-116.042 113.94-201.583 0-85.434-45.546-160.23-113.68-201.428-2.903 11.644-5.753 24.228-8.539 37.671-12.698 61.282-23.019 138.635-23.019 164.356 0 25.722 10.321 103.075 23.02 164.356 2.702 13.043 5.465 25.277 8.278 36.628zm332.333 96.006v30.017h652.864V1.593h-652.864V30.41h284.4c19.823 0 39.114 50.027 56.181 132.395 12.713 61.354 23.044 138.78 23.044 164.596 0 25.817-10.331 103.242-23.044 164.595-17.067 82.368-36.358 132.394-56.18 132.394h-284.4zm-976.181-94.185c-6.488 25.999-13.235 47.289-20.16 63.009h257.674c21.003 0 41.913-10.685 61.67-30.03H598.861c-44.012 0-85.214-12.03-120.5-32.979zM478.1 123.55c35.343-21.045 76.64-33.133 120.761-33.133h177.447c-19.392-18.587-39.868-28.83-60.432-28.83H458.203c6.83 15.508 13.49 36.439 19.897 61.963zm-.805 406.019c-68.787-41.33-114.812-116.675-114.812-202.768 0-85.986 45.909-161.248 114.551-202.612-6.498-25.895-13.255-47.07-20.132-62.603h-227.03c-28.458 0-56.747 19.62-82.229 53.82v423.987c25.482 34.202 53.77 53.82 82.23 53.82h227.03c6.969-15.74 13.814-37.276 20.392-63.644zm.295-1.185c2.813-11.35 5.576-23.585 8.278-36.628 12.699-61.281 23.02-138.634 23.02-164.355 0-25.722-10.321-103.075-23.02-164.357-2.785-13.443-5.635-26.028-8.538-37.672-68.134 41.2-113.68 115.994-113.68 201.427 0 85.543 45.661 160.42 113.94 201.585zM147.643 113.45c25.444-33.708 53.685-53.035 82.23-53.035h226.505c-8.421-18.652-17.017-28.824-25.535-28.824h-283.2v81.859zm0 427.903v81.858h283.2c8.518 0 17.114-10.172 25.535-28.824H229.873c-28.545 0-56.786-19.327-82.23-53.034zm-1.186-426.318V31.59h-285.6c-18.876 0-38.138 49.953-55.026 131.455-12.698 61.281-23.02 138.634-23.02 164.356 0 25.722 10.322 103.074 23.02 164.355 16.888 81.501 36.15 131.454 55.026 131.454h285.6v-83.444c-9.911-13.35-19.388-28.884-28.283-46.308C90.374 439 72.058 372.128 72.058 327.4c0-44.727 18.316-111.6 46.116-166.057 8.895-17.425 18.372-32.96 28.283-46.309zm0 1.98c-9.527 13-18.653 28.043-27.24 44.862-27.719 54.3-45.986 120.997-45.986 165.524 0 44.528 18.267 111.224 45.987 165.524 8.586 16.819 17.712 31.862 27.239 44.863V117.013zm0-86.604V1.593h-652.864v652.814h652.864V624.39h-285.6c-19.823 0-39.114-50.026-56.181-132.394-12.713-61.353-23.044-138.778-23.044-164.595 0-25.817 10.331-103.242 23.044-164.596 17.067-82.368 36.358-132.395 56.18-132.395h285.6z" fill="#C5C9E0" fill-rule="nonzero"/></svg>
