<svg xmlns="http://www.w3.org/2000/svg" width="1600" height="1940"><g fill="none" fill-rule="evenodd"><path vector-effect="non-scaling-stroke" stroke="#C5C9E0" d="M961.14.548v-184.4l-159.767-92.209-159.76 92.209M961.14 369.369l159.76-92.2v-184.4L961.14.558M1280.666.548v-184.4L1120.9-276.061l-159.76 92.209V.548l159.76 92.2z" opacity=".5"/><path vector-effect="non-scaling-stroke" stroke="#C5C9E0" stroke-dasharray="51.97" d="M1440.431 277.168v-184.4L1280.663.557l-159.76 92.21v184.4l159.76 92.2 159.768-92.2z" opacity=".5"/><path vector-effect="non-scaling-stroke" stroke="#C5C9E0" d="M1600.193.548v-184.4l-159.76-92.209-159.767 92.209V.548l159.768 92.2zM1759.957 277.168v-184.4L1600.189.557l-159.76 92.21v184.4l159.76 92.2zM1600.193 555.059v-184.4l-159.76-92.2-159.767 92.2v184.4l159.768 92.2zM1759.957 831.68V647.278l-159.768-92.2-159.76 92.2v184.4l159.76 92.2zM-316.964 1109.57l159.768 92.2 159.76-92.2M162.325 1386.19v-184.4l-159.768-92.2-159.76 92.2v184.4l159.76 92.2z" opacity=".5"/><path vector-effect="non-scaling-stroke" stroke="#C5C9E0" d="M2.562 1109.57l159.768 92.2 159.76-92.2M481.852 1386.19v-184.4l-159.768-92.2-159.76 92.2v184.4l159.76 92.2z" opacity=".5"/><path vector-effect="non-scaling-stroke" stroke="#C5C9E0" d="M322.087 1109.57l159.768 92.2 159.76-92.2M801.377 1386.19v-184.4l-159.76-92.2-159.767 92.2v184.4l159.767 92.2zM641.616 1109.57l159.76 92.2 159.767-92.2v-184.4" opacity=".5"/><path vector-effect="non-scaling-stroke" stroke="#C5C9E0" d="M1120.903 1386.19v-184.4l-159.76-92.2-159.768 92.2v184.4l159.768 92.2zM1280.666 1109.57v-184.4l-159.767-92.2-159.76 92.2v184.4l159.76 92.2zM1440.431 1386.19v-184.4l-159.768-92.2-159.76 92.2v184.4l159.76 92.2zM1600.193 1109.57v-184.4l-159.76-92.2-159.767 92.2v184.4l159.768 92.2z" opacity=".5"/><path vector-effect="non-scaling-stroke" stroke="#C5C9E0" d="M1759.957 1386.19v-184.4l-159.768-92.2-159.76 92.2v184.4l159.76 92.2zM2.562 1479.679l-159.76-92.2-159.768 92.2v184.4" opacity=".5"/><path vector-effect="non-scaling-stroke" stroke="#C5C9E0" d="M322.087 1479.679l-159.76-92.2-159.767 92.2M641.616 1664.082v-184.4l-159.768-92.2-159.76 92.2M801.377 1940.702v-184.4l-159.76-92.2" opacity=".5"/><path vector-effect="non-scaling-stroke" stroke="#C5C9E0" d="M961.14 1664.082v-184.4l-159.767-92.2-159.76 92.2v184.4l159.76 92.2z" opacity=".5"/><path vector-effect="non-scaling-stroke" stroke="#C5C9E0" d="M1280.666 1664.082v-184.4l-159.767-92.2-159.76 92.2v184.4l159.76 92.2zM1280.666 1664.097l-159.767 92.2M1600.193 1479.679l-159.76-92.2-159.767 92.2v184.4M961.14 184.966l159.76-92.2v-184.4l-159.76-92.209-159.767 92.208M1440.431 92.764v-184.4l-159.768-92.2-159.76 92.2v184.4l159.76 92.2z" opacity=".5"/><path vector-effect="non-scaling-stroke" stroke="#C5C9E0" d="M1759.957 92.764v-184.4l-159.768-92.2-159.76 92.2v184.4l159.76 92.2zM961.14 370.656v-184.4M1280.666 370.656v-184.4L1120.9 94.047l-159.76 92.209v184.4l159.76 92.2zM1600.193 370.656v-184.4l-159.76-92.209-159.767 92.209v184.4l159.768 92.2zM1759.957 647.276v-184.4l-159.768-92.2-159.76 92.2v184.4l159.76 92.2zM-157.2 1017.384v184.4l159.76 92.208 159.767-92.208v-184.4" opacity=".5"/><path vector-effect="non-scaling-stroke" stroke="#C5C9E0" d="M162.325 1017.384v184.4l159.76 92.208 159.768-92.208v-184.4" opacity=".5"/><path vector-effect="non-scaling-stroke" stroke="#C5C9E0" d="M481.852 1017.384v184.4l159.768 92.208 159.76-92.208v-184.4M801.377 1017.369l159.768-92.2v-184.4" opacity=".5"/><path vector-effect="non-scaling-stroke" stroke="#C5C9E0" d="M1120.903 1201.787v-184.4l-159.76-92.2-159.768 92.2v184.4l159.768 92.2zM1440.431 1201.787v-184.4l-159.768-92.2-159.76 92.2v184.4l159.76 92.2zM1600.193 925.168v-184.4l-159.76-92.2-159.767 92.2v184.4l159.768 92.2z" opacity=".5"/><path vector-effect="non-scaling-stroke" stroke="#C5C9E0" d="M1759.957 1201.787v-184.4l-159.768-92.2-159.76 92.2v184.4l159.76 92.2zM2.562 1479.679v-184.4l-159.76-92.2-159.768 92.2v184.4l159.768 92.2zM162.325 1571.895l-159.768-92.2-159.76 92.2" opacity=".5"/><path vector-effect="non-scaling-stroke" stroke="#C5C9E0" d="M322.087 1479.679v-184.4l-159.76-92.2-159.767 92.2v184.4l159.768 92.2zM481.852 1571.895l-159.768-92.2-159.76 92.2M641.616 1479.679v-184.4l-159.768-92.2-159.76 92.2v184.4l159.76 92.2zM481.852 1571.895l159.768-92.2 159.76 92.2v184.4l-159.76 92.2" opacity=".5"/><path vector-effect="non-scaling-stroke" stroke="#C5C9E0" d="M961.14 1479.679v-184.4l-159.767-92.2-159.76 92.2v184.4l159.76 92.2zM1120.903 1756.298v-184.4l-159.76-92.2-159.768 92.2v184.4l159.768 92.2z" opacity=".5"/><path vector-effect="non-scaling-stroke" stroke="#C5C9E0" d="M1280.666 1479.679v-184.4l-159.767-92.2-159.76 92.2v184.4l159.76 92.2zM1280.666 1479.694l-159.767 92.2v184.4l159.767 92.208M1600.193 1479.679v-184.4l-159.76-92.2-159.767 92.2v184.4" opacity=".5"/><path vector-effect="non-scaling-stroke" stroke="#5468FF" d="M-7346.542-415.646v231.805l159.76 92.2V94.05l159.768 92.2v184.408l159.76-92.208 159.767 92.208v184.4l-159.768 93.5 159.768 92.21v184.4l159.76-92.2 159.76 92.2 159.767 92.216v185.692l159.76 92.2v184.4l159.768-92.2 159.76 92.2 159.767-92.2 159.76 92.2v-184.4l159.76-92.2 159.767 92.2 159.76-92.2 159.768 92.2v184.4l159.76 92.217 159.767-92.2 159.76 92.2 159.768-92.216 159.76-92.2v-184.4l159.759-93.51 159.768 93.51 159.76-93.51 319.527 185.71 319.527-185.71 319.528 185.71 319.527-185.71 159.76 93.51 159.768-93.51v-184.4l159.76-92.2V648.56l-159.76-93.5v-184.4l159.76-92.21 159.759 92.21v184.4l159.768 93.5v184.408l159.76 92.2-159.76 92.217v185.692l159.76 92.2 159.767-92.2 159.76 92.2v184.4l159.76 92.217 319.527-184.416 159.768 92.2v-184.4l159.76-92.2 159.767 92.2 159.76-92.2 159.76 92.2v184.4l159.767-92.2 159.76 92.2 159.767-92.2v-184.4l159.76-93.51V925.186l159.768-92.217 159.76 92.2 159.767-93.491V462.86l-159.768-92.2 159.768-92.21V94.05l159.76-93.5 319.527 185.7L2239.25.55"/></g></svg>
