<svg xmlns="http://www.w3.org/2000/svg" width="1600" height="561"><g fill="none" fill-rule="evenodd"><path d="M0-84h1600v7243H0z"/><g transform="translate(-82)"><circle cx="674" cy="357" r="167" vector-effect="non-scaling-stroke" stroke="#5468FF"/><path vector-effect="non-scaling-stroke" stroke="#C5C9E0" stroke-dasharray="10,10" d="M234.5 508C364.01 508 469 403.01 469 273.5S364.01 39 234.5 39 0 143.99 0 273.5 104.99 508 234.5 508z"/><circle cx="481" cy="229" r="82" vector-effect="non-scaling-stroke" stroke="#C5C9E0"/><path vector-effect="non-scaling-stroke" stroke="#C5C9E0" stroke-dasharray="10,10" d="M749.5 350c8.008 0 14.5-6.492 14.5-14.5s-6.492-14.5-14.5-14.5-14.5 6.492-14.5 14.5 6.492 14.5 14.5 14.5zm-212-173c33.413 0 60.5-27.087 60.5-60.5S570.913 56 537.5 56 477 83.087 477 116.5s27.087 60.5 60.5 60.5zm771-12c33.413 0 60.5-27.087 60.5-60.5S1341.913 44 1308.5 44s-60.5 27.087-60.5 60.5 27.087 60.5 60.5 60.5z"/><circle cx="141" cy="464" r="82" vector-effect="non-scaling-stroke" stroke="#C5C9E0"/><circle cx="156.5" cy="71.5" r="44.5" vector-effect="non-scaling-stroke" stroke="#C5C9E0"/><circle cx="156.5" cy="379.5" r="24.5" vector-effect="non-scaling-stroke" stroke="#C5C9E0"/><circle cx="820" cy="440" r="17" vector-effect="non-scaling-stroke" stroke="#C5C9E0"/><circle cx="688" cy="82" r="11" vector-effect="non-scaling-stroke" stroke="#C5C9E0"/><circle cx="548" cy="526" r="14" vector-effect="non-scaling-stroke" stroke="#C5C9E0"/><circle cx="1204.896" cy="429.353" r="130.5" vector-effect="non-scaling-stroke" stroke="#C5C9E0"/><path vector-effect="non-scaling-stroke" stroke="#C5C9E0" stroke-dasharray="1" d="M1660.786 469.886c129.51 0 234.5-104.99 234.5-234.5s-104.99-234.5-234.5-234.5c-129.511 0-234.5 104.99-234.5 234.5s104.989 234.5 234.5 234.5z"/><path vector-effect="non-scaling-stroke" stroke="#C5C9E0" stroke-dasharray="10,10" d="M819.608 171.234c8.008 0 14.5-6.491 14.5-14.5 0-8.008-6.492-14.5-14.5-14.5s-14.5 6.492-14.5 14.5c0 8.009 6.492 14.5 14.5 14.5z"/><path vector-effect="non-scaling-stroke" stroke="#5468FF" stroke-dasharray="10,10" d="M1050.687 421.275c61.252 0 110.907-49.655 110.907-110.907 0-61.252-49.655-110.906-110.907-110.906-61.252 0-110.906 49.654-110.906 110.906s49.654 110.907 110.906 110.907z"/><path vector-effect="non-scaling-stroke" stroke="#C5C9E0" stroke-dasharray="10,10" d="M1402.08 301.684c24.417 0 44.21-19.793 44.21-44.21 0-24.416-19.793-44.21-44.21-44.21-24.416 0-44.21 19.794-44.21 44.21 0 24.417 19.794 44.21 44.21 44.21z"/><circle cx="1431.5" cy="440.5" r="44.5" vector-effect="non-scaling-stroke" stroke="#C5C9E0"/><circle cx="1367.829" cy="71.719" r="19" vector-effect="non-scaling-stroke" stroke="#C5C9E0"/><circle cx="733.956" cy="50.896" r="17" vector-effect="non-scaling-stroke" stroke="#C5C9E0"/><circle cx="914.902" cy="379.517" r="11" vector-effect="non-scaling-stroke" stroke="#C5C9E0"/></g></g></svg>
