<svg xmlns="http://www.w3.org/2000/svg" width="1882" height="1275"><g fill="none" fill-rule="evenodd"><path stroke="#C5C9E0" d="M949 941.499a7.501 7.501 0 1 1-15 0 7.5 7.5 0 0 1 15 0z" opacity=".5" vector-effect="non-scaling-stroke"/><path stroke="#C5C9E0" d="M961 941.5c0 10.77-8.73 19.5-19.499 19.5-10.77 0-19.501-8.73-19.501-19.5 0-10.767 8.73-19.5 19.501-19.5C952.27 922 961 930.733 961 941.5z" opacity=".5" vector-effect="non-scaling-stroke"/><path stroke="#C5C9E0" d="M972 941.499C972 958.344 958.344 972 941.501 972 924.656 972 911 958.344 911 941.499 911 924.656 924.656 911 941.501 911 958.344 911 972 924.656 972 941.499z" opacity=".5" vector-effect="non-scaling-stroke"/><path stroke="#C5C9E0" d="M991 941.499c0 27.34-22.161 49.501-49.5 49.501S892 968.838 892 941.499c0-27.34 22.161-49.499 49.5-49.499s49.5 22.16 49.5 49.499z" opacity=".5" vector-effect="non-scaling-stroke"/><path stroke="#C5C9E0" d="M1021 940.999c0 44.186-35.817 80.001-80 80.001s-80-35.815-80-80.001C861 896.815 896.817 861 941 861s80 35.815 80 79.999z" opacity=".5" vector-effect="non-scaling-stroke"/><path stroke="#C5C9E0" d="M1069 940.999c0 70.695-57.309 128.001-127.999 128.001C870.31 1069 813 1011.694 813 940.999 813 870.306 870.309 813 941.001 813c70.69 0 127.999 57.306 127.999 127.999z" opacity=".5" vector-effect="non-scaling-stroke"/><path stroke="#C5C9E0" d="M1148 941.499c0 114.047-92.451 206.501-206.499 206.501C827.454 1148 735 1055.546 735 941.499 735 827.454 827.454 735 941.501 735 1055.55 735 1148 827.454 1148 941.499z" opacity=".5" vector-effect="non-scaling-stroke"/><path stroke="#C5C9E0" d="M1274 940.999c0 183.91-149.09 333.001-332.999 333.001C757.088 1274 608 1124.91 608 940.999 608 757.089 757.088 608 941.001 608 1124.91 608 1274 757.088 1274 940.999z" opacity=".5" vector-effect="non-scaling-stroke"/><path stroke="#C5C9E0" d="M1477 941c0 295.474-239.751 535-535.499 535C645.751 1476 406 1236.474 406 941c0-295.47 239.751-535 535.501-535C1237.25 406 1477 645.53 1477 941z" opacity=".5" vector-effect="non-scaling-stroke"/><path stroke="#C5C9E0" d="M1804 941c0 476.071-386.155 862-862.499 862C465.155 1803 79 1417.071 79 941 79 464.932 465.155 79 941.501 79 1417.845 79 1804 464.932 1804 941zm-865-7.496V0m1 933.504L699 31.983m239 902.52l-467-807.57m465 808.57l-660-659.65m659 661.649L127 470.75M934 939.5L32 698.63" opacity=".5" vector-effect="non-scaling-stroke"/><path stroke="#5468FF" d="M1882 941.5L0 942.498" vector-effect="non-scaling-stroke"/><path stroke="#C5C9E0" d="M934 942.499L32 1183.37m903-237.873L127 1412.25m809-464.754l-660 659.65m662-659.65l-467 807.57m469-807.57l-241 901.521m240-901.521V1881m4-933.504l241 901.521M946 947.496l467 807.57m-467-807.57l660 659.65M948 945.497l808 466.752m-808-469.75l902 240.872M948 939.5l902-240.871M948 937.502l808-466.752M946 935.503l660-659.65m-660 658.65l467-807.57M943 933.504l241-901.521" opacity=".5" vector-effect="non-scaling-stroke"/></g></svg>
