<svg preserveAspectRatio="none" width="1600" height="750" xmlns="http://www.w3.org/2000/svg"><g fill="none" fill-rule="evenodd"><path d="M1600 2.015C1599.066 1.338 1553.235 1 1462.508 1c-136.093 0-136.093 248.542-272.186 248.542H918.138c-136.09 0-136.09 248.542-272.183 248.542H373.772C237.678 498.084 268.143 687 132.05 687H0" stroke="#C5C9E0" vector-effect="non-scaling-stroke" opacity=".5"/><path d="M1600 49.732c-.934-.488-46.765-.732-137.492-.732-136.093 0-136.093 233.681-272.186 233.681H918.138c-136.09 0-136.09 233.682-272.183 233.682H373.772C237.678 516.363 268.143 693 132.05 693H0" stroke="#C5C9E0" vector-effect="non-scaling-stroke" opacity=".5"/><path d="M1600 99.437c-.934-.291-46.765-.437-137.492-.437-136.093 0-136.093 218.097-272.186 218.097H918.138c-136.09 0-136.09 218.094-272.183 218.094H373.772C237.678 535.19 268.143 699 132.05 699H0" stroke="#C5C9E0" vector-effect="non-scaling-stroke" opacity=".5"/><path d="M1600 149.145c-.934-.097-46.765-.145-137.492-.145-136.093 0-136.093 202.51-272.186 202.51H918.138c-136.09 0-136.09 202.508-272.183 202.508H373.772C237.678 554.018 268.143 705 132.05 705H0" stroke="#C5C9E0" vector-effect="non-scaling-stroke" opacity=".5" stroke-dasharray="10"/><path d="M1600 197c-.934.092-46.765.138-137.492.138-136.093 0-136.093 187.601-272.186 187.601H918.138c-136.09 0-136.09 187.604-272.183 187.604H373.772C237.678 572.343 268.143 711 132.05 711H0" stroke="#C5C9E0" vector-effect="non-scaling-stroke" opacity=".5"/><path d="M1600 247c-.934.288-46.765.431-137.492.431-136.093 0-136.093 171.908-272.186 171.908H918.138c-136.09 0-136.09 171.91-272.183 171.91H373.772C237.678 591.25 268.143 717 132.05 717H0" stroke="#C5C9E0" vector-effect="non-scaling-stroke" opacity=".5"/><path d="M1600 296c-.934.482-46.765.723-137.492.723-136.093 0-136.093 156.215-272.186 156.215H918.138c-136.09 0-136.09 156.213-272.183 156.213H373.772C237.678 609.151 268.143 722 132.05 722H0" stroke="#C5C9E0" vector-effect="non-scaling-stroke" opacity=".5"/><path d="M1600 343c-.934.67-46.765 1.006-137.492 1.006-136.093 0-136.093 141.257-272.186 141.257H918.138c-136.09 0-136.09 141.256-272.183 141.256H373.772C237.678 626.519 268.143 727 132.05 727H0" stroke="#C5C9E0" vector-effect="non-scaling-stroke" opacity=".5"/><path d="M1600 393h-138c-136.093 0-135.585 125.858-271.678 125.858H918.138c-136.09 0-136.09 125.561-272.183 125.561H373.772C237.678 644.42 268.143 732 132.05 732H0" stroke="#5468FF" vector-effect="non-scaling-stroke"/><path d="M1600 442c-.934 1.062-46.765 1.594-137.492 1.594-136.093 0-136.093 109.857-272.186 109.857H918.138c-136.09 0-136.09 109.86-272.183 109.86H373.772C237.678 663.311 268.143 738 132.05 738H0" stroke="#C5C9E0" vector-effect="non-scaling-stroke" opacity=".5"/><path d="M1600 490c-.934 1.248-46.765 1.872-137.492 1.872-136.093 0-136.093 94.912-272.186 94.912H918.138c-136.09 0-136.09 94.912-272.183 94.912H373.772C237.678 681.696 268.143 744 132.05 744H0" stroke="#C5C9E0" vector-effect="non-scaling-stroke" opacity=".5" stroke-dasharray="10"/><path d="M1600 538c-.934 1.447-46.765 2.171-137.492 2.171-136.093 0-136.093 79.584-272.186 79.584H918.138c-136.09 0-136.09 79.587-272.183 79.587H373.772C237.678 699.342 268.143 749 132.05 749H0" stroke="#C5C9E0" vector-effect="non-scaling-stroke" opacity=".5"/></g></svg>
