<svg width="1140" height="401" xmlns="http://www.w3.org/2000/svg"><defs><radialGradient cy="100%" fx="50%" fy="100%" r="142.145%" gradientTransform="matrix(.35175 0 0 1 .324 0)" id="a"><stop stop-color="#3A416F" offset="0%"/><stop stop-color="#21243D" offset="100%"/></radialGradient><linearGradient x1="0%" y1="0%" y2="100%" id="b"><stop stop-color="#EC8B63" stop-opacity="0" offset="0%"/><stop stop-color="#F3A57E" offset="100%"/></linearGradient><linearGradient x1="0%" y1="0%" y2="100%" id="c"><stop stop-color="#EC8B63" stop-opacity="0" offset="0%"/><stop stop-color="#FFC0A1" offset="100%"/></linearGradient></defs><g fill="none" fill-rule="evenodd"><path d="M8 0h1124a8 8 0 0 1 8 8v385a8 8 0 0 1-8 8H8a8 8 0 0 1-8-8V8a8 8 0 0 1 8-8z" fill="url(#a)"/><path d="M8 0h246.62L903 401H8a8 8 0 0 1-8-8V8a8 8 0 0 1 8-8z" fill="url(#b)" transform="matrix(1 0 0 -1 0 401)"/><path d="M8 0h180.613L452 401H8a8 8 0 0 1-8-8V8a8 8 0 0 1 8-8z" fill="url(#b)" transform="matrix(1 0 0 -1 0 401)"/><path d="M8 0h137.101L252 401H8a8 8 0 0 1-8-8V8a8 8 0 0 1 8-8z" fill="url(#c)" transform="matrix(1 0 0 -1 0 401)"/></g></svg>