<svg width="1140" height="400" xmlns="http://www.w3.org/2000/svg"><defs><radialGradient cy="100%" fx="50%" fy="100%" r="142.5%" gradientTransform="matrix(.35088 0 0 1 .325 0)" id="a"><stop stop-color="#3A416F" offset="0%"/><stop stop-color="#21243D" offset="100%"/></radialGradient><linearGradient x1="0%" y1="0%" y2="100%" id="b"><stop stop-color="#008FBA" stop-opacity="0" offset="0%"/><stop stop-color="#5BBFDD" offset="100%"/></linearGradient><linearGradient x1="0%" y1="0%" x2="87.71%" y2="86.939%" id="c"><stop stop-color="#3AD1FF" stop-opacity="0" offset="0%"/><stop stop-color="#5BBFDD" offset="100%"/></linearGradient></defs><g fill="none" fill-rule="evenodd"><rect fill="url(#a)" width="1140" height="400" rx="8"/><path d="M8 0h1109L155.223 400H8a8 8 0 0 1-8-8V8a8 8 0 0 1 8-8z" fill="url(#b)"/><path d="M8 0h713.3L131.84 400H8a8 8 0 0 1-8-8V8a8 8 0 0 1 8-8z" fill="url(#b)"/><path d="M8 0h1131L996.847 400H8a8 8 0 0 1-8-8V8a8 8 0 0 1 8-8z" fill="url(#b)"/><path d="M8 0h370.76L120.535 400H8a8 8 0 0 1-8-8V8a8 8 0 0 1 8-8z" fill="url(#c)"/></g></svg>