<svg xmlns="http://www.w3.org/2000/svg" xmlns:xlink="http://www.w3.org/1999/xlink" width="1368" height="717"><defs><path vector-effect="non-scaling-stroke" id="a" d="M0 289h292V0H0z"/><path vector-effect="non-scaling-stroke" id="c" d="M0 289h292V0H0z"/></defs><g fill="none" fill-rule="evenodd"><path vector-effect="non-scaling-stroke" stroke="#C5C9E0" d="M470.5 634.5h291v-288h-291v288zm569 55h291v-288h-291v288z" opacity=".5"/><path vector-effect="non-scaling-stroke" stroke="#C5C9E0" d="M1294.5 437.5h73v-72h-73v72zm-645 23h67v-65h-67v65z" opacity=".5"/><g stroke-dasharray="6" opacity=".5" transform="translate(590 227)"><mask id="b" fill="#fff"><use xlink:href="#a"/></mask><path vector-effect="non-scaling-stroke" stroke="#C5C9E0" stroke-width="2" d="M0 289h292V0H0v289z" mask="url(#b)"/></g><path vector-effect="non-scaling-stroke" stroke="#C5C9E0" d="M.5 644.5h67v-65H.5z" opacity=".5"/><g stroke-dasharray="6" opacity=".5" transform="translate(34 323)"><mask id="d" fill="#fff"><use xlink:href="#c"/></mask><path vector-effect="non-scaling-stroke" stroke="#C5C9E0" stroke-width="2" d="M0 289h292V0H0v289z" mask="url(#d)"/></g><path vector-effect="non-scaling-stroke" stroke="#EC8B63" d="M443.5 716.5h483v-478h-483z"/><path vector-effect="non-scaling-stroke" stroke="#C5C9E0" d="M612.5 500.5h139v-136h-139z" opacity=".5"/><path vector-effect="non-scaling-stroke" stroke="#C5C9E0" d="M498.5 600.5h606V.5h-606z" opacity=".5"/></g></svg>
