<svg xmlns="http://www.w3.org/2000/svg" width="1603" height="781"><g fill="none" fill-rule="evenodd" stroke="#C5C9E0" opacity=".5" vector-effect="non-scaling-stroke"><path d="M801.306 74c207.83 0 376.308 141.36 376.308 315.74s-168.478 315.744-376.308 315.744C593.479 705.484 425 564.12 425 389.74 425 215.36 593.479 74 801.306 74z"/><path stroke-dasharray="4,2" d="M801.272 25c240.396 0 435.272 163.511 435.272 365.219 0 201.701-194.876 365.216-435.272 365.216C560.878 755.435 366 591.92 366 390.219 366 188.51 560.878 25 801.272 25z"/><path stroke-dasharray="4,2" d="M313.102 548.025C209.187 447.35 343.806 295.05 613.786 207.861c269.977-87.19 573.075-76.252 676.99 24.424 103.915 100.678-30.707 252.974-300.684 340.164-269.977 87.19-573.075 76.255-676.99-24.424z"/><path d="M241.248 570.536c-119.151-115.442 35.208-290.07 344.776-390.042 309.562-99.975 657.107-87.438 776.26 28.002 119.151 115.443-35.211 290.07-344.773 390.045-309.566 99.976-657.11 87.438-776.263-28.005z"/><path stroke-dasharray="4,2" d="M1290.776 548.025c-103.912 100.679-407.013 111.614-676.99 24.424-269.977-87.19-404.6-239.486-300.685-340.164 103.915-100.676 407.013-111.614 676.99-24.424 269.98 87.19 404.6 239.488 300.685 340.164z"/><path d="M1358.163 569.338c-118.317 114.631-463.43 127.084-770.834 27.806-307.4-99.275-460.682-272.682-342.361-387.317 118.317-114.631 463.43-127.08 770.83-27.806 307.403 99.275 460.683 272.682 342.365 387.317z"/></g></svg>
