<svg xmlns="http://www.w3.org/2000/svg" width="1600" height="616"><g fill="none" fill-rule="evenodd" stroke="#848AB8" stroke-width=".72" opacity=".5"><path d="M295.4 234.792c44.903 7.755 87.589-22.381 95.34-67.31 7.75-44.929-22.368-87.638-67.273-95.393-44.903-7.756-87.588 22.38-95.338 67.31-7.751 44.93 22.368 87.637 67.27 95.393zm-94.866 352.75c44.903 7.756 87.588-22.38 95.34-67.31 7.749-44.928-22.369-87.638-67.273-95.393-44.904-7.755-87.588 22.38-95.339 67.31-7.75 44.929 22.369 87.638 67.272 95.393zm196.956 26.161c40.694 7.028 79.377-20.283 86.401-61 7.024-40.717-20.27-79.422-60.965-86.45-40.694-7.027-79.376 20.283-86.4 61-7.024 40.717 20.27 79.422 60.965 86.45zm-42.984-190.682c40.694 7.028 79.377-20.283 86.401-60.999 7.024-40.717-20.27-79.422-60.965-86.45-40.694-7.028-79.377 20.283-86.401 60.999-7.024 40.717 20.27 79.422 60.965 86.45zm132.497-115.869c40.694 7.028 79.377-20.283 86.401-61 7.024-40.717-20.27-79.422-60.964-86.45-40.695-7.028-79.378 20.283-86.402 61-7.024 40.717 20.27 79.422 60.965 86.45zm292.1 66.154c40.695 7.028 79.377-20.283 86.4-61 7.024-40.717-20.27-79.422-60.964-86.45-40.694-7.028-79.376 20.283-86.4 61-7.024 40.717 20.27 79.422 60.964 86.45zm-129.685 69.232c26.663 4.605 52.005-13.289 56.608-39.965 4.602-26.677-13.281-52.035-39.942-56.64-26.662-4.604-52.006 13.288-56.607 39.965-4.603 26.677 13.28 52.036 39.941 56.64zm-53.127 171.465c33.678 5.816 65.692-16.786 71.505-50.482 5.812-33.698-16.777-65.729-50.454-71.545-33.677-5.817-65.692 16.786-71.505 50.482-5.813 33.697 16.776 65.728 50.454 71.545zm-93.194-157.466c21.048 3.636 41.057-10.49 44.69-31.55 3.633-21.062-10.485-41.082-31.533-44.717-21.05-3.635-41.057 10.49-44.69 31.552-3.634 21.06 10.485 41.08 31.533 44.715zm138.819-182.845c19.644 3.392 38.32-9.792 41.71-29.449 3.39-19.656-9.786-38.342-29.432-41.734-19.645-3.392-38.319 9.791-41.71 29.449-3.392 19.656 9.786 38.34 29.432 41.734zm291.527 312.145c23.856 4.12 46.531-11.89 50.65-35.758 4.117-23.87-11.884-46.558-35.738-50.678-23.855-4.12-46.531 11.89-50.65 35.758-4.117 23.868 11.884 46.558 35.738 50.678zm329.594-371.117c17.54 3.029 34.215-8.743 37.242-26.293 3.027-17.551-8.737-34.234-26.278-37.264-17.54-3.029-34.214 8.743-37.242 26.293-3.027 17.551 8.737 34.234 26.278 37.264zm-145.963 209.1c18.943 3.271 36.951-9.441 40.22-28.396 3.27-18.955-9.436-36.973-28.379-40.244-18.944-3.273-36.952 9.442-40.221 28.396-3.27 18.955 9.436 36.973 28.38 40.244zm305.18-70.34c17.54 3.03 34.214-8.742 37.24-26.293 3.03-17.55-8.735-34.233-26.276-37.262-17.541-3.03-34.214 8.742-37.241 26.293-3.029 17.55 8.737 34.233 26.277 37.262zm94.706 42.536c17.54 3.03 34.213-8.742 37.24-26.293 3.028-17.55-8.736-34.233-26.277-37.263-17.541-3.029-34.214 8.743-37.242 26.294-3.028 17.55 8.737 34.233 26.278 37.262zm-33.275-110.465c16.137 2.787 31.478-8.043 34.263-24.19 2.786-16.146-8.039-31.494-24.176-34.282-16.138-2.787-31.478 8.043-34.262 24.19-2.786 16.146 8.04 31.495 24.175 34.282zm-109.024 161.811c17.54 3.03 34.215-8.742 37.241-26.293 3.028-17.55-8.736-34.233-26.278-37.263-17.54-3.028-34.212 8.743-37.24 26.294-3.028 17.55 8.737 34.233 26.277 37.262zm-17.757-154.909c18.944 3.272 36.951-9.442 40.22-28.396 3.272-18.955-9.436-36.972-28.379-40.244-18.944-3.272-36.952 9.441-40.221 28.396-3.27 18.955 9.436 36.973 28.38 40.244zm-179.05 29.291c23.856 4.12 46.531-11.889 50.649-35.758 4.117-23.869-11.883-46.557-35.738-50.677-23.855-4.121-46.531 11.889-50.65 35.758-4.116 23.868 11.884 46.557 35.74 50.677zm-110.308 237.511c27.362 4.726 53.373-13.639 58.097-41.017 4.722-27.379-13.631-53.405-40.994-58.13-27.363-4.726-53.374 13.638-58.097 41.017-4.723 27.378 13.63 53.404 40.994 58.13zM912.92 469.72c28.767 4.968 56.11-14.338 61.076-43.121 4.965-28.783-14.33-56.143-43.096-61.111-28.766-4.968-56.111 14.337-61.076 43.12-4.966 28.783 14.33 56.143 43.096 61.112zm297.272 51.339c28.767 4.968 56.11-14.338 61.076-43.12 4.966-28.783-14.33-56.144-43.096-61.112-28.766-4.968-56.111 14.338-61.075 43.121-4.967 28.782 14.329 56.143 43.095 61.11zm72.304-115.794c28.767 4.969 56.112-14.338 61.077-43.12 4.966-28.782-14.33-56.143-43.096-61.111-28.766-4.968-56.11 14.338-61.076 43.12-4.965 28.783 14.329 56.143 43.095 61.111zm-275.236-50.151c33.678 5.815 65.69-16.786 71.503-50.483 5.813-33.697-16.775-65.729-50.453-71.545-33.678-5.816-65.691 16.786-71.504 50.483-5.813 33.697 16.776 65.728 50.454 71.545zM41.943 376.895c27.364 4.726 53.375-13.638 58.097-41.017 4.724-27.378-13.63-53.404-40.993-58.13C31.683 273.023 5.673 291.386.95 318.765c-4.723 27.378 13.63 53.404 40.993 58.13zM209.525 57.646c18.943 3.272 36.95-9.441 40.22-28.396 3.27-18.955-9.436-36.973-28.38-40.244-18.943-3.272-36.95 9.442-40.22 28.396-3.27 18.955 9.436 36.973 28.38 40.244zM145.66 253.437c21.048 3.635 41.058-10.492 44.69-31.552 3.633-21.06-10.485-41.08-31.533-44.715-21.049-3.635-41.057 10.49-44.69 31.552-3.634 21.06 10.485 41.08 31.533 44.715z"/><path stroke-dasharray="25.78068008422851,25.78068008422851" d="M206.535 355.579c21.048 3.636 41.057-10.492 44.69-31.552 3.633-21.06-10.485-41.08-31.533-44.715-21.05-3.635-41.058 10.49-44.691 31.552-3.634 21.06 10.486 41.08 31.534 44.715zM75.792 461.28c16.839 2.908 32.845-8.393 35.752-25.241 2.906-16.849-8.389-32.864-25.228-35.772-16.839-2.909-32.845 8.393-35.75 25.24-2.908 16.85 8.387 32.865 25.226 35.773zM1419.348 195.9c16.839 2.909 32.846-8.393 35.752-25.241 2.906-16.849-8.388-32.865-25.227-35.773-16.84-2.907-32.846 8.394-35.751 25.241-2.908 16.849 8.387 32.865 25.226 35.773z"/><path d="M145.677 397.428c13.331 2.302 26.003-6.644 28.304-19.982 2.301-13.339-6.64-26.018-19.97-28.32-13.332-2.303-26.003 6.645-28.305 19.983-2.3 13.338 6.64 26.017 19.971 28.32zM50.189 564.195c19.645 3.393 38.32-9.792 41.71-29.448 3.392-19.657-9.785-38.342-29.43-41.735-19.646-3.392-38.32 9.792-41.711 29.449-3.392 19.656 9.786 38.34 29.43 41.734zm107.977-421.172c14.734 2.544 28.74-7.343 31.283-22.085 2.543-14.742-7.339-28.756-22.074-31.301-14.734-2.544-28.74 7.343-31.283 22.085-2.543 14.744 7.34 28.757 22.074 31.301zM65.35 66.78c29.468 5.09 57.48-14.686 62.567-44.172 5.086-29.484-14.679-57.512-44.146-62.6C54.3-45.083 26.29-25.307 21.204 4.18c-5.086 29.484 14.679 57.512 44.146 62.6z"/><path stroke-dasharray="25.78068008422851,25.78068008422851" d="M772.225 610.354c44.903 7.754 87.59-22.381 95.34-67.31s-22.369-87.64-67.272-95.393c-44.904-7.756-87.589 22.38-95.34 67.31-7.75 44.928 22.369 87.637 67.272 95.393z"/></g></svg>