<svg width="1200" height="600" xmlns="http://www.w3.org/2000/svg"><g fill="none" fill-rule="evenodd" opacity=".5"><path vector-effect="non-scaling-stroke" d="M1046 599c-261.4-49.466-441-152.463-441-271M1208 511c-260.922-16.595-494.295-82.34-603-182" stroke="#C5C9E0"/><path vector-effect="non-scaling-stroke" d="M1208 415.594C991.367 419.847 770.468 390.65 605 328" stroke="#C5C9E0" stroke-dasharray="10.776"/><path vector-effect="non-scaling-stroke" d="M1208 329.76c-186.532 28.768-402.277 30.785-603-.76" stroke="#C5C9E0"/><path vector-effect="non-scaling-stroke" d="M1208 222c-145.628 64.859-360.713 106-603 106" stroke="#C5C9E0" stroke-dasharray="10.776"/><path vector-effect="non-scaling-stroke" d="M1085.173 0C1134.8 134.07 945.326 274.783 605 329M781.078 0C892.784 109.41 834.09 240.538 605 329M438 0c214.945 84.378 290.615 213.04 165.567 329M0 35c346.667 32.566 605 151.843 605 294M0 146c261.749 16.428 495.995 82.199 605 182" stroke="#C5C9E0"/><path vector-effect="non-scaling-stroke" d="M0 241.44c217.362-4.442 438.962 24.745 605 87.56" stroke="#C5C9E0" stroke-dasharray="10.776"/><path vector-effect="non-scaling-stroke" d="M0 327.57c187.174-29.083 403.35-31.235 605 .43M0 435c145.742-64.867 362.79-106 605-106" stroke="#C5C9E0"/><path vector-effect="non-scaling-stroke" d="M117 600c8.861-115.697 191.043-223.835 488-271" stroke="#5468FF"/><path vector-effect="non-scaling-stroke" d="M387.217 598C341.57 502.948 414.163 401.519 605 328M652 597c-120.114-79.176-145.929-177.818-47.54-269" stroke="#C5C9E0"/></g></svg>
