<svg width="1600" height="900" xmlns="http://www.w3.org/2000/svg" xmlns:xlink="http://www.w3.org/1999/xlink"><defs><path id="a" d="M0 0h1600v900H0z"/><linearGradient x1="48.771%" y1="1.229%" x2="48.771%" y2="100%" id="b"><stop stop-color="#FFF" offset="0%"/><stop stop-color="#FFF" stop-opacity="0" offset="100%"/></linearGradient><linearGradient x1="50%" y1="0%" x2="50%" y2="100%" id="d"><stop stop-color="#F5F5FA" stop-opacity="0" offset="0%"/><stop stop-color="#F5F5FA" offset="100%"/></linearGradient><linearGradient x1="50%" y1="0%" x2="50%" y2="100%" id="e"><stop stop-color="#FFF" stop-opacity="0" offset="0%"/><stop stop-color="#FFF" offset="100%"/></linearGradient></defs><g fill="none" fill-rule="evenodd"><path fill="#F5F5FA" d="M0 0h1600v900H0z"/><mask id="c" fill="#fff"><use xlink:href="#a"/></mask><use fill="#F5F5FA" xlink:href="#a"/><path fill="url(#b)" mask="url(#c)" d="M0 0h1600v900H0z"/><path fill="url(#d)" mask="url(#c)" d="M0 692h1600v208H0z"/><g stroke="#C5C9E0" mask="url(#c)" opacity=".5"><path stroke-width="1.866" d="M811.937 304.331l203.253 307.432-380.213 30.212"/><path stroke-width="2.13" d="M856.353 178.16l265.435 463.814H642.085"/><path stroke-width="2.13" d="M847.47 203.394l252.996 432.54-459.802 6.04"/><path stroke-width="2.13" d="M838.586 228.629l240.564 401.263-439.906 12.081"/><path stroke-width="2.13" d="M829.704 253.862l228.124 369.986-420.006 18.124"/><path stroke-width="2.134" d="M820.818 279.098l215.688 338.709L636.4 641.973"/><path stroke-width="1.6" d="M803.051 329.566l190.816 276.155-360.31 36.255"/><path stroke-width="1.334" d="M794.17 354.8l178.375 244.878-340.41 42.297"/><path stroke-width="1.066" d="M785.284 380.035l165.946 213.6-320.516 48.34"/><path stroke-width=".8" d="M776.402 405.269l153.505 182.327-300.614 54.378"/><path d="M477.387 587.596l163.1-284.686M493.377 587.596l168.43-302.1M509.367 587.596l173.759-319.517M525.358 587.596l179.089-336.93" stroke-width="2.13"/><path d="M541.348 587.596l184.42-354.348" stroke-width="2.134"/><path d="M557.338 587.596l189.748-371.762" stroke-width="1.866"/><path d="M573.328 587.596l195.08-389.179" stroke-width="1.6"/><path d="M589.318 587.596l200.41-406.592" stroke-width="1.334"/><path d="M605.308 587.596l205.738-424.01" stroke-width="1.066"/><path d="M621.298 587.596l211.07-441.423" stroke-width=".8"/></g><path fill="url(#e)" mask="url(#c)" transform="matrix(1 0 0 -1 0 156)" d="M0 0h1600v156H0z"/></g></svg>