<svg xmlns="http://www.w3.org/2000/svg" width="1600" height="306"><g fill="none" fill-rule="evenodd" vector-effect="non-scaling-stroke"><path stroke="#C5C9E0" d="M-60 173.15c158.773 0 189.984-148.565 293.055-148.565C336.125 24.585 453.477 305 623.758 305c170.281 0 212.156-192.643 280.894-192.643 68.739 0 104.59 134.788 194.801 134.788C1189.664 247.145 1264.328 7 1351.602 7c87.273 0 131.062 166.15 335.398 166.15" vector-effect="non-scaling-stroke"/><path stroke="#5468FF" d="M-27 201.901c66.49 0 179.074-61.726 293.823-61.726C381.573 140.175 438.771 246 630.145 246c191.373 0 287.032-166 383.981-166 96.949 0 228.537 92.682 362.657 92.682 134.12 0 167.158-32.507 269.217-32.507" vector-effect="non-scaling-stroke"/><path stroke="#C5C9E0" d="M-69 179.676c157.127 0 191.712 63.132 319.106 55.645C377.5 227.835 579.026 1 702.568 1 826.11 1 903.095 263 977.681 263c74.585 0 103.146-211.174 216.53-211.174 113.382 0 196.814 85.696 449.789 85.696" vector-effect="non-scaling-stroke"/><path stroke="#C5C9E0" d="M-47 211.968C332.709 231.908 417.986 144 602.298 144s328.094 124 491.712 124c163.617 0 280.932-94.94 479.97-100.473 132.692-3.69 177.36-9.277 134.004-16.762" vector-effect="non-scaling-stroke"/><path stroke="#C5C9E0" d="M-39 248c52.926 0 226.001-218.715 385.94-224.86C506.878 16.994 518 215.49 645.25 221.708c127.249 6.219 147.978-171.735 250.767-171.735 102.79 0 88.787 150.093 744.983 150.093" vector-effect="non-scaling-stroke"/></g></svg>
