<svg xmlns="http://www.w3.org/2000/svg" viewBox="0 0 1600 900"><g fill="none" fill-rule="evenodd"><path stroke="#C5C9E0" d="M1435.759 1129.76c-351.523 0-636.485-284.966-636.485-636.485M1630.881 837.737c-324.763 134.52-697.086-19.7-831.61-344.463" opacity=".5"/><path stroke="#C5C9E0" stroke-dasharray="10.776" stroke-width="1.078" d="M1699.4 493.274c-248.562 248.562-651.563 248.562-900.129 0M1435.759-143.212c0 351.523-284.966 636.485-636.485 636.485" opacity=".5"/><path stroke="#C5C9E0" d="M1143.737-338.335c134.52 324.763-19.7 697.086-344.463 831.61M799.273-406.853c248.562 248.563 248.562 651.563 0 900.126M454.809-338.335c324.767 134.52 478.987 506.847 344.463 831.61M162.788-143.212c351.522 0 636.484 284.966 636.484 636.485M-32.335 148.81c324.763-134.52 697.086 19.7 831.61 344.464" opacity=".5"/><path stroke="#C5C9E0" stroke-dasharray="10.776" stroke-width="1.078" d="M-100.854 493.274c248.562-248.563 651.563-248.563 900.125 0" opacity=".5"/><path stroke="#C5C9E0" d="M162.788 1129.76c0-351.523 284.966-636.485 636.484-636.485" opacity=".5"/><path stroke="#C5C9E0" stroke-dasharray="10.776" stroke-width="1.078" d="M454.809 1324.883c-134.52-324.763 19.7-697.086 344.463-831.61" opacity=".5"/><path stroke="#C5C9E0" d="M799.273 1393.4c-248.563-248.562-248.563-651.562 0-900.125M1143.737 1324.883c-324.763-134.52-478.987-506.847-344.463-831.61" opacity=".5"/><path fill="#5369FF" d="M1631.148 148.809l.924.382c-134.626 325.018-507.244 479.36-832.263 344.734l.382-.924c324.51 134.415 696.543-19.685 830.957-344.192zM-31.538 838.27l-.924-.382c134.625-325.018 507.244-479.36 832.263-344.734l-.383.924C474.91 359.663 102.876 513.763-31.538 838.27z"/></g></svg>
